<?xml version="1.0" encoding="UTF-8"?>
<!DOCTYPE svg PUBLIC "-//W3C//DTD SVG 1.1//EN" "http://www.w3.org/Graphics/SVG/1.1/DTD/svg11.dtd">
<!-- Creator: CorelDRAW 2020 (64 Bit) -->
<svg xmlns="http://www.w3.org/2000/svg" xml:space="preserve" width="50mm" height="50mm" version="1.1" style="shape-rendering:geometricPrecision; text-rendering:geometricPrecision; image-rendering:optimizeQuality; fill-rule:evenodd; clip-rule:evenodd"
viewBox="0 0 5000 5000"
 xmlns:xlink="http://www.w3.org/1999/xlink"
 xmlns:xodm="http://www.corel.com/coreldraw/odm/2003">
 <defs>
  <style type="text/css">
   <![CDATA[
    .str0 {stroke:#201E1E;stroke-width:20;stroke-miterlimit:22.9256}
    .fil0 {fill:#FEFEFE;fill-rule:nonzero}
   ]]>
  </style>
 </defs>
 <g id="Camada_x0020_1">
  <metadata id="CorelCorpID_0Corel-Layer"/>
  <path class="fil0 str0" d="M2500 2195.73c-167.78,0 -304.27,136.49 -304.27,304.27 0,167.78 136.49,304.27 304.27,304.27 167.79,0 304.27,-136.48 304.27,-304.27 0,-167.78 -136.49,-304.27 -304.27,-304.27zm187.04 256.37l-93.32 71.03 37.81 122.57c2.78,9.09 -0.65,18.96 -8.47,24.35 -7.83,5.38 -18.26,5.04 -25.74,-0.87l-97.15 -76.68 -95.15 76.54c-3.95,3.18 -8.78,4.79 -13.6,4.79 -4.22,0 -8.39,-1.22 -12.09,-3.65 -7.91,-5.31 -11.47,-15.09 -8.78,-24.17l36.04 -122.75 -93.5 -71.16c-7.43,-5.65 -10.43,-15.39 -7.43,-24.25 2.95,-8.87 11.25,-14.78 20.6,-14.78l114.75 0 38.51 -115.54c5.91,-17.73 35.34,-17.73 41.21,0l38.39 115.54 114.75 0c9.3,0 17.6,5.95 20.6,14.77 2.96,8.83 0,18.61 -7.43,24.26z"/>
 </g>
</svg>
