<?xml version="1.0" encoding="UTF-8"?>
<!DOCTYPE svg PUBLIC "-//W3C//DTD SVG 1.1//EN" "http://www.w3.org/Graphics/SVG/1.1/DTD/svg11.dtd">
<!-- Creator: CorelDRAW 2020 (64 Bit) -->
<svg xmlns="http://www.w3.org/2000/svg" xml:space="preserve" width="50mm" height="50mm" version="1.1" style="shape-rendering:geometricPrecision; text-rendering:geometricPrecision; image-rendering:optimizeQuality; fill-rule:evenodd; clip-rule:evenodd"
viewBox="0 0 5000 5000"
 xmlns:xlink="http://www.w3.org/1999/xlink"
 xmlns:xodm="http://www.corel.com/coreldraw/odm/2003">
 <defs>
  <style type="text/css">
   <![CDATA[
    .str0 {stroke:#FEFEFE;stroke-width:211.67;stroke-miterlimit:22.9256}
    .str1 {stroke:#FEFEFE;stroke-width:20;stroke-miterlimit:22.9256}
    .fil0 {fill:none}
    .fil1 {fill:#FEFEFE}
   ]]>
  </style>
 </defs>
 <g id="Camada_x0020_1">
  <metadata id="CorelCorpID_0Corel-Layer"/>
  <g id="instagram_icon.svg">
   <circle class="fil0 str0" cx="2497.72" cy="2502.28" r="2387.72"/>
   <path class="fil1 str1" d="M1551.82 2401.45c0,-394.72 0,-592.08 122.65,-714.72 122.64,-122.65 320,-122.65 714.72,-122.65l209.36 0c394.72,0 592.13,0 714.72,122.65 122.65,122.64 122.65,320 122.65,714.72l0 209.36c0,394.72 0,592.13 -122.65,714.72 -122.59,122.65 -320,122.65 -714.72,122.65l-209.36 0c-394.72,0 -592.08,0 -714.72,-122.65 -122.65,-122.59 -122.65,-320 -122.65,-714.72l0 -209.36zm1570.06 -366.34c0,86.71 -70.28,156.99 -156.99,156.99 -86.71,0 -156.99,-70.28 -156.99,-156.99 0,-86.71 70.28,-156.99 156.99,-156.99 86.71,0 156.99,70.28 156.99,156.99zm-418.65 575.7c0,115.63 -93.73,209.35 -209.36,209.35 -115.63,0 -209.36,-93.72 -209.36,-209.35 0,-115.64 93.73,-209.36 209.36,-209.36 115.63,0 209.36,93.72 209.36,209.36zm209.35 0c0,231.21 -187.5,418.65 -418.71,418.65 -231.21,0 -418.71,-187.44 -418.71,-418.65 0,-231.21 187.5,-418.71 418.71,-418.71 231.21,0 418.71,187.5 418.71,418.71z"/>
  </g>
 </g>
</svg>
