<?xml version="1.0" encoding="UTF-8"?>
<!DOCTYPE svg PUBLIC "-//W3C//DTD SVG 1.1//EN" "http://www.w3.org/Graphics/SVG/1.1/DTD/svg11.dtd">
<!-- Creator: CorelDRAW 2020 (64 Bit) -->
<svg xmlns="http://www.w3.org/2000/svg" xml:space="preserve" width="297mm" height="100mm" version="1.1" style="shape-rendering:geometricPrecision; text-rendering:geometricPrecision; image-rendering:optimizeQuality; fill-rule:evenodd; clip-rule:evenodd"
viewBox="0 0 29700 10000"
 xmlns:xlink="http://www.w3.org/1999/xlink"
 xmlns:xodm="http://www.corel.com/coreldraw/odm/2003">
 <defs>
  <style type="text/css">
   <![CDATA[
    .str0 {stroke:#201E1E;stroke-width:211.67;stroke-miterlimit:22.9256}
    .fil0 {fill:#FEFEFE;fill-rule:nonzero}
   ]]>
  </style>
   <clipPath id="id0">
    <rect x="-419.88" y="2367.06" width="6541.2" height="6541.2"/>
   </clipPath>
 </defs>
 <g id="Camada_x0020_1">
  <metadata id="CorelCorpID_0Corel-Layer"/>
  <g style="clip-path:url(#id0)">
   <image id="pincel-Photoroom.png" x="-419.88" y="2367.07" width="6541.19" height="6541.19" xlink:href="logo_white_border_Images\logo_white_border_ImgID1.png"/>
  </g>
  <path class="fil0 str0" d="M5932.68 6847.07l0 -2693.01 2150.66 0c99.74,0 190.13,24.31 271.17,72.94 81.04,48.62 146.5,113.45 196.37,194.49 49.87,81.04 74.81,171.43 74.81,271.17l0 1615.81c0,99.74 -24.94,190.13 -74.81,271.17 -49.87,81.04 -115.33,145.87 -196.37,194.49 -81.04,48.63 -171.43,72.94 -271.17,72.94l-2150.66 0zm557.3 -542.34l1567.18 0c7.48,2.49 13.72,1.24 18.7,-3.74 4.99,-4.99 6.24,-11.22 3.74,-18.7l0 -1563.44c2.5,-7.49 1.25,-13.72 -3.74,-18.71 -4.98,-4.98 -11.22,-6.23 -18.7,-3.74l-1567.18 0c-7.48,-2.49 -13.09,-1.24 -16.83,3.74 -3.74,4.99 -5.61,11.22 -5.61,18.71l0 1563.44c0,7.48 1.87,13.71 5.61,18.7 3.74,4.98 9.35,6.23 16.83,3.74z"/>
  <path id="1" class="fil0 str0" d="M9029.64 6847.07l0 0 0 -1641.99c0,-94.75 24.31,-182.02 72.93,-261.82 48.62,-79.79 112.83,-144 192.63,-192.62 79.79,-48.63 168.31,-72.94 265.56,-72.94l1200.63 0 0 531.12 -1178.19 0c-7.48,0 -13.09,1.87 -16.83,5.61 -3.74,3.74 -5.61,9.35 -5.61,16.83l0 1615.81 -531.12 0z"/>
  <path id="2" class="fil0 str0" d="M11580.52 6847.07c-97.25,0 -185.77,-24.31 -265.56,-72.94 -79.8,-48.62 -143.38,-112.83 -190.76,-192.62 -47.38,-79.79 -71.06,-167.07 -71.06,-261.82l0 -822.86 1668.16 -3.74 0 -261.83c0,-7.48 -1.87,-13.09 -5.61,-16.83 -3.74,-3.74 -9.35,-5.61 -16.83,-5.61l-1645.72 0 0 -531.12 1671.9 0c99.75,0 189.51,23.69 269.31,71.07 79.79,47.37 142.75,111.58 188.88,192.62 46.13,81.04 69.2,168.94 69.2,263.69l3.74 1641.99 -1675.65 0zm26.18 -531.12l1114.6 0 0 -347.85 -1137.04 -3.74 0 329.15c0,7.48 1.87,13.09 5.61,16.83 3.74,3.74 9.35,5.61 16.83,5.61z"/>
  <polygon id="3" class="fil0 str0" points="14284.75,6847.07 14284.75,6847.07 13431.96,4677.7 13996.74,4677.7 14494.2,5874.59 15014.1,4677.7 15545.22,4677.7 16102.53,5889.56 16562.58,4677.7 17127.37,4677.7 16311.98,6847.07 15904.29,6847.07 15283.4,5478.12 14692.44,6847.07 "/>
  <path id="4" class="fil0 str0" d="M17998.86 6847.07c-99.74,0 -190.13,-24.31 -271.17,-72.94 -81.04,-48.62 -145.87,-113.45 -194.5,-194.49 -48.62,-81.04 -72.93,-171.43 -72.93,-271.17l0 -1615.81c0,-99.74 24.31,-190.13 72.93,-271.17 48.63,-81.04 113.46,-145.87 194.5,-194.49 81.04,-48.63 171.43,-72.94 271.17,-72.94l1612.06 0c99.74,0 190.13,24.31 271.17,72.94 81.04,48.62 146.5,113.45 196.37,194.49 49.87,81.04 74.8,171.43 74.8,271.17l0 231.9 -546.08 0 0 -205.71c2.5,-7.49 1.25,-13.72 -3.74,-18.71 -4.98,-4.98 -11.22,-6.23 -18.7,-3.74l-1563.44 0c-7.48,-2.49 -13.09,-1.24 -16.83,3.74 -3.74,4.99 -5.61,11.22 -5.61,18.71l0 1563.44c0,7.48 1.87,13.71 5.61,18.7 3.74,4.98 9.35,6.23 16.83,3.74l1563.44 0c7.48,2.49 13.72,1.24 18.7,-3.74 4.99,-4.99 6.24,-11.22 3.74,-18.7l3.74 -445.1 -598.44 3.74 3.74 -542.34 1137.04 0 0 1009.88c0,99.74 -24.93,190.13 -74.8,271.17 -49.87,81.04 -115.33,145.87 -196.37,194.49 -81.04,48.63 -171.43,72.94 -271.17,72.94l-1612.06 0z"/>
  <path id="5" class="fil0 str0" d="M21073.38 6847.07c-94.76,0 -182.03,-24.31 -261.82,-72.94 -79.8,-48.62 -144.01,-112.83 -192.63,-192.62 -48.62,-79.79 -72.94,-167.07 -72.94,-261.82l0 -1114.61c0,-94.75 24.32,-182.02 72.94,-261.82 48.62,-79.79 112.83,-144 192.63,-192.62 79.79,-48.63 167.06,-72.94 261.82,-72.94l1144.52 0c99.75,0 189.51,23.69 269.31,71.07 79.79,47.37 142.75,111.58 188.88,192.62 46.13,81.04 69.2,168.94 69.2,263.69l3.74 822.87 -1671.91 3.74 0 261.82c0,7.48 1.87,13.09 5.61,16.83 3.74,3.74 9.35,5.61 16.83,5.61l1649.47 0 -3.74 531.12 -1671.91 0zm3.74 -1286.66l1137.04 -3.74 0 -325.41c0,-7.48 -1.87,-13.09 -5.61,-16.83 -3.74,-3.74 -9.35,-5.61 -16.83,-5.61l-1092.16 0c-7.48,0 -13.09,1.87 -16.83,5.61 -3.74,3.74 -5.61,9.35 -5.61,16.83l0 329.15z"/>
  <path id="6" class="fil0 str0" d="M23145.5 6847.07l0 0 0 -2169.37 1671.91 0c97.24,0 185.76,24.31 265.56,72.94 79.79,48.62 144,112.83 192.62,192.62 48.62,79.8 71.69,167.07 69.2,261.82l3.74 1641.99 -534.87 0 0 -1615.81c0,-7.48 -1.87,-13.09 -5.61,-16.83 -3.74,-3.74 -9.35,-5.61 -16.83,-5.61l-1092.16 0c-4.99,0 -9.98,1.87 -14.96,5.61 -4.99,3.74 -7.48,9.35 -7.48,16.83l0 1615.81 -531.12 0z"/>
  <path id="7" class="fil0 str0" d="M25763.7 6847.07l0 -2154.41c0,-99.74 24.31,-190.13 72.93,-271.17 48.63,-81.04 113.46,-145.87 194.5,-194.49 81.04,-48.63 171.43,-72.94 271.17,-72.94l1612.06 0c99.74,0 190.13,24.31 271.17,72.94 81.04,48.62 146.5,113.45 196.37,194.49 49.87,81.04 74.81,171.43 74.81,271.17l0 2154.41 -546.09 0 3.74 -886.45 -1612.06 0 0 886.45 -538.6 0zm538.6 -1425.05l1608.32 0 0 -703.17c2.5,-7.49 1.25,-13.72 -3.74,-18.71 -4.98,-4.98 -11.22,-6.23 -18.7,-3.74l-1563.44 0c-7.48,-2.49 -13.09,-1.24 -16.83,3.74 -3.74,4.99 -5.61,11.22 -5.61,18.71l0 703.17z"/>
  <polygon id="8" class="fil0 str0" points="28808.29,6847.07 28808.29,4154.06 29343.15,4154.06 29343.15,6847.07 "/>
 </g>
</svg>
