<?xml version="1.0" encoding="UTF-8"?>
<!DOCTYPE svg PUBLIC "-//W3C//DTD SVG 1.1//EN" "http://www.w3.org/Graphics/SVG/1.1/DTD/svg11.dtd">
<!-- Creator: CorelDRAW 2020 (64 Bit) -->
<svg xmlns="http://www.w3.org/2000/svg" xml:space="preserve" width="50mm" height="50mm" version="1.1" style="shape-rendering:geometricPrecision; text-rendering:geometricPrecision; image-rendering:optimizeQuality; fill-rule:evenodd; clip-rule:evenodd"
viewBox="0 0 5000 5000"
 xmlns:xlink="http://www.w3.org/1999/xlink"
 xmlns:xodm="http://www.corel.com/coreldraw/odm/2003">
 <defs>
  <style type="text/css">
   <![CDATA[
    .str1 {stroke:#F250B9;stroke-width:26.46;stroke-miterlimit:22.9256}
    .str0 {stroke:#F250B9;stroke-width:211.67;stroke-miterlimit:22.9256}
    .fil0 {fill:none;fill-rule:nonzero}
    .fil1 {fill:#F250B9;fill-rule:nonzero}
   ]]>
  </style>
 </defs>
 <g id="Camada_x0020_1">
  <metadata id="CorelCorpID_0Corel-Layer"/>
  <g id="step_icon_3.svg">
   <path class="fil0 str0" d="M1104.97 6.13l2777.8 0c613.5,0 1111.06,497.56 1111.06,1111.1l0.04 2777.8c-0.04,613.46 -497.6,1111.02 -1111.14,1111.02l-2777.76 0.08c-613.5,-0.08 -1111.06,-497.64 -1111.06,-1111.19l-0.04 -2777.71c0.04,-613.54 497.6,-1111.1 1111.14,-1111.1z"/>
   <path class="fil1 str1" d="M2612.51 2964.08c-16.17,17.73 -39.06,27.81 -63.08,27.81 -23.98,0 -46.87,-10.08 -63.08,-27.81l-455.81 -498.56c-31.87,-34.85 -29.44,-88.9 5.38,-120.78 34.85,-31.83 88.9,-29.39 120.77,5.42l307.28 336.09 0 -1261.32c0,-47.2 38.26,-85.46 85.46,-85.46 47.2,0 85.5,38.26 85.5,85.46l0 1261.32 307.28 -336.09c31.87,-34.81 85.92,-37.25 120.78,-5.42 34.81,31.88 37.24,85.93 5.37,120.78l-455.85 498.56z"/>
   <path class="fil1 str1" d="M1609.25 2792.54c0,-47.21 -38.26,-85.46 -85.46,-85.46 -47.21,0 -85.46,38.25 -85.46,85.46l0 6.25c0,155.89 0,281.49 13.27,380.31 13.77,102.55 43.29,188.93 111.87,257.51 68.62,68.62 154.96,98.1 257.56,111.92 98.81,13.27 224.42,13.27 380.26,13.27l696.28 0c155.84,0 281.49,0 380.26,-13.27 102.59,-13.82 188.94,-43.3 257.56,-111.92 68.57,-68.58 98.1,-154.96 111.87,-257.51 13.27,-98.82 13.27,-224.42 13.27,-380.31l0 -6.25c0,-47.21 -38.26,-85.46 -85.46,-85.46 -47.2,0 -85.46,38.25 -85.46,85.46 0,163.61 -0.21,277.67 -11.76,363.76 -11.25,83.65 -31.83,127.91 -63.37,159.45 -31.54,31.54 -75.8,52.12 -159.41,63.37 -86.09,11.55 -200.19,11.72 -363.76,11.72l-683.76 0c-163.57,0 -277.67,-0.17 -363.76,-11.72 -83.61,-11.25 -127.92,-31.83 -159.41,-63.37 -31.58,-31.54 -52.12,-75.8 -63.37,-159.45 -11.6,-86.09 -11.76,-200.15 -11.76,-363.76z"/>
  </g>
 </g>
</svg>
