<?xml version="1.0" encoding="UTF-8"?>
<!DOCTYPE svg PUBLIC "-//W3C//DTD SVG 1.1//EN" "http://www.w3.org/Graphics/SVG/1.1/DTD/svg11.dtd">
<!-- Creator: CorelDRAW 2020 (64 Bit) -->
<svg xmlns="http://www.w3.org/2000/svg" xml:space="preserve" width="50mm" height="50mm" version="1.1" style="shape-rendering:geometricPrecision; text-rendering:geometricPrecision; image-rendering:optimizeQuality; fill-rule:evenodd; clip-rule:evenodd"
viewBox="0 0 5000 5000"
 xmlns:xlink="http://www.w3.org/1999/xlink"
 xmlns:xodm="http://www.corel.com/coreldraw/odm/2003">
 <defs>
  <style type="text/css">
   <![CDATA[
    .str0 {stroke:#F250B9;stroke-width:211.67;stroke-miterlimit:22.9256}
    .str1 {stroke:#F250B9;stroke-width:20;stroke-miterlimit:22.9256}
    .fil0 {fill:none;fill-rule:nonzero}
    .fil2 {fill:#F250B9}
    .fil1 {fill:#F250B9;fill-rule:nonzero}
   ]]>
  </style>
 </defs>
 <g id="Camada_x0020_1">
  <metadata id="CorelCorpID_0Corel-Layer"/>
  <g id="step_icon_1.svg">
   <path class="fil0 str0" d="M1104.97 6.13l2777.8 0c613.5,0 1111.06,497.56 1111.06,1111.1l0.04 2777.8c-0.04,613.46 -497.6,1111.02 -1111.14,1111.02l-2777.76 0.08c-613.5,-0.08 -1111.06,-497.64 -1111.06,-1111.19l-0.04 -2777.71c0.04,-613.54 497.6,-1111.1 1111.14,-1111.1z"/>
   <path class="fil1 str1" d="M2206.33 2472.66c0,-158.78 128.72,-287.5 287.5,-287.5 158.78,0 287.5,128.72 287.5,287.5 0,158.78 -128.72,287.5 -287.5,287.5 -158.78,0 -287.5,-128.72 -287.5,-287.5z"/>
   <path class="fil2 str1" d="M1216.09 2472.79c0,209.47 54.3,280.02 162.9,421.12 216.86,281.7 580.54,601.12 1114.88,601.12 534.34,0 898.02,-319.42 1114.88,-601.12 108.6,-141.1 162.9,-211.65 162.9,-421.12 0,-209.47 -54.3,-280.03 -162.9,-421.09 -216.86,-281.74 -580.54,-601.11 -1114.88,-601.11 -534.34,0 -898.02,319.37 -1114.88,601.11 -108.6,141.06 -162.9,211.62 -162.9,421.09zm1277.78 -479.17c-264.65,0 -479.16,214.56 -479.16,479.17 0,264.65 214.51,479.16 479.16,479.16 264.65,0 479.16,-214.51 479.16,-479.16 0,-264.61 -214.51,-479.17 -479.16,-479.17z"/>
  </g>
 </g>
</svg>
