<?xml version="1.0" encoding="UTF-8"?>
<!DOCTYPE svg PUBLIC "-//W3C//DTD SVG 1.1//EN" "http://www.w3.org/Graphics/SVG/1.1/DTD/svg11.dtd">
<!-- Creator: CorelDRAW 2020 (64 Bit) -->
<svg xmlns="http://www.w3.org/2000/svg" xml:space="preserve" width="50mm" height="50mm" version="1.1" style="shape-rendering:geometricPrecision; text-rendering:geometricPrecision; image-rendering:optimizeQuality; fill-rule:evenodd; clip-rule:evenodd"
viewBox="0 0 5000 5000"
 xmlns:xlink="http://www.w3.org/1999/xlink"
 xmlns:xodm="http://www.corel.com/coreldraw/odm/2003">
 <defs>
  <style type="text/css">
   <![CDATA[
    .str0 {stroke:#FEFEFE;stroke-width:211.67;stroke-miterlimit:22.9256}
    .str1 {stroke:#FEFEFE;stroke-width:20;stroke-miterlimit:22.9256}
    .fil0 {fill:none}
    .fil1 {fill:#FEFEFE}
   ]]>
  </style>
 </defs>
 <g id="Camada_x0020_1">
  <metadata id="CorelCorpID_0Corel-Layer"/>
  <g id="instagram_icon.svg">
   <circle class="fil0 str0" cx="2497.72" cy="2562.28" r="2387.72"/>
  </g>
  <path class="fil1 str1" d="M3552.25 1585.34c-60.64,-34.03 -233.68,-275.78 -670.29,-397.84 -41.62,-11.63 -294.4,-50.91 -298.89,-53.62 -53.56,10.36 -186.64,-2.94 -345.01,25.94 -1074.12,195.82 -1550.65,1486.35 -888.73,2334.87 137.21,175.88 290.07,306.39 494.37,411.37 291.99,150.05 295.64,86.45 293.52,-80.47 -0.73,-57.09 1.45,-120.02 -2.33,-176.23 -100.39,1.11 -148.45,30.8 -265.53,2.69 -259.18,-62.23 -200.9,-270.82 -368.52,-384.74 -31.82,-21.62 -68.17,-35.76 -67.81,-77.76 55.08,-51.66 161.38,5.06 197.26,31.12 62.88,45.68 73.63,84.83 121.91,147.76 131.29,171.16 362.29,102.4 387.97,71.3 14.37,-32.73 18.89,-77.64 33.75,-111.22 7.76,-17.53 14.12,-27.76 25.37,-43.46 14.9,-20.81 20.8,-20.18 31.6,-41.43 -367.66,-32.93 -594.57,-201.4 -646.1,-552.03 -29.31,-199.44 -2.46,-397.51 112.05,-531.54 49.55,-58.01 4.83,-36.89 -2.83,-166.36 -4,-67.47 12.04,-205.35 46.34,-252.56 124.76,-13.48 272.82,72.54 353.72,123.89 40,25.4 34.43,28.75 90.3,15.27 171.44,-41.36 361.42,-46.67 535.71,-18.22 144.93,23.66 116.2,44.58 186.41,0.89 83.07,-51.71 223.18,-132.6 350.51,-122.27 38.22,49.7 51.61,177.64 47.24,252.93 -7.06,121.52 -52.25,106.83 2.53,172.75 11.04,13.29 18.2,24.4 28.76,40.45 88.84,134.93 106.95,309.43 76.67,492.93 -56.42,342.08 -279.7,498.17 -590.17,536.66 -8.35,1.03 -23.65,2.2 -29.93,3.86l-21.65 9.92c-1.03,-1.6 -3.67,2.21 -5.26,3.62 121.1,84.62 95.05,333.41 93.68,502.65 -1.74,216.65 -36.6,310.96 274.83,158.82 563.78,-275.44 892.9,-891.41 800.49,-1533.26 -23.32,-161.96 -77.05,-323.14 -143.18,-451.07 -51.06,-98.8 -108.16,-184.16 -175.64,-266.65 -13.39,-16.37 -19.55,-23.14 -35.78,-40.25l-27.34 -38.71z"/>
 </g>
</svg>
