<?xml version="1.0" encoding="UTF-8"?>
<!DOCTYPE svg PUBLIC "-//W3C//DTD SVG 1.1//EN" "http://www.w3.org/Graphics/SVG/1.1/DTD/svg11.dtd">
<!-- Creator: CorelDRAW 2020 (64 Bit) -->
<svg xmlns="http://www.w3.org/2000/svg" xml:space="preserve" width="50mm" height="50mm" version="1.1" style="shape-rendering:geometricPrecision; text-rendering:geometricPrecision; image-rendering:optimizeQuality; fill-rule:evenodd; clip-rule:evenodd"
viewBox="0 0 5000 5000"
 xmlns:xlink="http://www.w3.org/1999/xlink"
 xmlns:xodm="http://www.corel.com/coreldraw/odm/2003">
 <defs>
  <style type="text/css">
   <![CDATA[
    .str0 {stroke:#BDBFC1;stroke-width:20;stroke-miterlimit:22.9256}
    .fil0 {fill:#BDBFC1}
   ]]>
  </style>
 </defs>
 <g id="Camada_x0020_1">
  <metadata id="CorelCorpID_0Corel-Layer"/>
  <g id="_2526412262992">
   <path class="fil0 str0" d="M2408.9 1486.88c559.23,-138.49 777.89,776.07 160.26,891.59 -536.96,100.43 -809.07,-730.9 -160.26,-891.59zm-2.8 -259.99c-995.82,176.18 -698.08,1528.67 174.09,1406.19 976.66,-137.17 686.94,-1558.52 -174.09,-1406.19z"/>
   <path class="fil0 str0" d="M2322.28 2747.92c-228.98,26.54 -457.77,95.94 -641.3,239.23 -123.23,96.21 -384.64,437.09 -189.63,562.51 226.63,145.76 97.76,-217.68 407.64,-411.84 203.76,-127.68 515.48,-164.9 750.08,-138.44 201.85,22.76 469.75,109.31 588.71,286.03 65.32,97.02 39.27,245.82 164.06,281.04 171.57,48.44 156.11,-171.07 123.21,-272.53 -145.68,-449.12 -789.34,-593.89 -1202.77,-546z"/>
  </g>
 </g>
</svg>
